<svg width="978" height="982" viewBox="0 0 978 982" fill="none" xmlns="http://www.w3.org/2000/svg">
<g filter="url(#filter0_f_157_768)">
<path d="M-19.1455 330.581C33.9228 291.505 83.4348 298.108 129.391 350.389C175.346 402.67 221.089 440.081 266.617 462.624C312.146 485.167 357.922 512.41 403.944 544.353C449.966 576.295 497.142 616.167 545.471 663.969C593.8 711.77 611.195 762.261 597.655 815.441C584.115 868.622 555.138 913.995 510.723 951.561C466.309 989.126 407.68 1005.46 334.837 1000.56C261.994 995.656 204.289 1010.13 161.721 1043.99C119.153 1077.84 66.5509 1094.48 3.91505 1093.89C-58.7207 1093.31 -117.64 1078.18 -172.842 1048.52C-228.045 1018.86 -284.818 988.455 -343.16 957.308C-401.503 926.161 -414.857 882.418 -383.224 826.079C-351.59 769.74 -337.286 723.54 -340.314 687.48C-343.341 651.42 -370.036 599.843 -420.399 532.747C-470.762 465.651 -460.405 424.206 -389.329 408.412C-318.253 392.617 -252.054 385.466 -190.732 386.958C-129.409 388.449 -72.2138 369.657 -19.1455 330.581Z" fill="#191B25"/>
</g>
<defs>
<filter id="filter0_f_157_768" x="-826.704" y="-69.4659" width="1803.78" height="1538.35" filterUnits="userSpaceOnUse" color-interpolation-filters="sRGB">
<feFlood flood-opacity="0" result="BackgroundImageFix"/>
<feBlend mode="normal" in="SourceGraphic" in2="BackgroundImageFix" result="shape"/>
<feGaussianBlur stdDeviation="187.488" result="effect1_foregroundBlur_157_768"/>
</filter>
</defs>
</svg>
