<svg width="390" height="844" viewBox="0 0 390 844" fill="none" xmlns="http://www.w3.org/2000/svg">
<g filter="url(#filter0_f_157_786)">
<path d="M-4.93829 330.581C8.74995 291.505 21.5209 298.107 33.3746 350.389C45.2283 402.67 57.0269 440.081 68.7704 462.624C80.5139 485.167 92.3211 512.41 104.192 544.353C116.063 576.295 128.231 616.167 140.697 663.969C153.163 711.77 157.65 762.261 154.157 815.441C150.665 868.622 143.19 913.995 131.734 951.561C120.278 989.126 105.156 1005.46 86.3667 1000.56C67.5779 995.656 52.6935 1010.13 41.7137 1043.99C30.7339 1077.84 17.1659 1094.48 1.00987 1093.89C-15.1462 1093.31 -30.3436 1078.18 -44.5824 1048.52C-58.8211 1018.86 -73.4648 988.455 -88.5136 957.308C-103.562 926.161 -107.007 882.418 -98.8473 826.079C-90.6878 769.74 -86.9985 723.54 -87.7793 687.48C-88.5601 651.42 -95.4458 599.843 -108.436 532.747C-121.427 465.651 -118.755 424.206 -100.422 408.412C-82.0891 392.617 -65.0139 385.466 -49.1966 386.958C-33.3793 388.449 -18.6265 369.657 -4.93829 330.581Z" fill="#191B25"/>
</g>
<defs>
<filter id="filter0_f_157_786" x="-491.493" y="-69.4659" width="1021.77" height="1538.35" filterUnits="userSpaceOnUse" color-interpolation-filters="sRGB">
<feFlood flood-opacity="0" result="BackgroundImageFix"/>
<feBlend mode="normal" in="SourceGraphic" in2="BackgroundImageFix" result="shape"/>
<feGaussianBlur stdDeviation="187.488" result="effect1_foregroundBlur_157_786"/>
</filter>
</defs>
</svg>
