<svg width="390" height="844" viewBox="0 0 390 844" fill="none" xmlns="http://www.w3.org/2000/svg">
<g filter="url(#filter0_f_157_785)">
<path d="M490.686 276.747C500.432 324.827 495.449 357.369 475.735 374.373C456.022 391.377 441.181 412.485 431.214 437.698C421.246 462.91 409.728 486.95 396.66 509.818C383.591 532.685 367.865 554.086 349.48 574.022C331.096 593.958 313.597 591.612 296.985 566.986C280.372 542.36 267.193 509.231 257.447 467.601C247.701 425.971 245.707 380.529 251.466 331.277C257.225 282.024 255.785 237.755 247.147 198.471C238.508 159.186 236.072 117.849 239.837 74.4593C243.603 31.0701 251.909 -5.57625 264.756 -35.4797C277.603 -65.3831 290.782 -96.166 304.294 -127.828C317.806 -159.491 332.868 -156.266 349.48 -118.154C366.093 -80.0416 380.379 -56.8811 392.34 -48.6723C404.301 -40.4635 422.686 -44.2748 447.494 -60.106C472.302 -75.9372 485.26 -56.8811 486.367 -2.93771C487.475 51.0057 486.035 99.0857 482.048 141.302C478.061 183.519 480.94 228.667 490.686 276.747Z" fill="#171A2C"/>
</g>
<defs>
<filter id="filter0_f_157_785" x="-136.853" y="-524.356" width="1007.35" height="1486.73" filterUnits="userSpaceOnUse" color-interpolation-filters="sRGB">
<feFlood flood-opacity="0" result="BackgroundImageFix"/>
<feBlend mode="normal" in="SourceGraphic" in2="BackgroundImageFix" result="shape"/>
<feGaussianBlur stdDeviation="187.488" result="effect1_foregroundBlur_157_785"/>
</filter>
</defs>
</svg>
