<svg width="1512" height="978" viewBox="0 0 1512 978" fill="none" xmlns="http://www.w3.org/2000/svg">
<ellipse cx="1206.19" cy="402.146" rx="1.05323" ry="1.09071" fill="white" fill-opacity="0.3"/>
<ellipse cx="266.32" cy="643.703" rx="1.05323" ry="1.09071" fill="white" fill-opacity="0.3"/>
<ellipse cx="1030.62" cy="611.854" rx="1.05323" ry="1.09071" fill="white" fill-opacity="0.3"/>
<ellipse cx="111.427" cy="908.297" rx="1.05323" ry="1.09071" fill="white" fill-opacity="0.3"/>
<ellipse cx="921.204" cy="721.774" rx="1.05323" ry="1.09071" fill="white" fill-opacity="0.3"/>
<ellipse cx="1464.61" cy="842.837" rx="1.05323" ry="1.09071" fill="white" fill-opacity="0.3"/>
<ellipse cx="1092.27" cy="256.663" rx="1.05323" ry="1.09071" fill="white" fill-opacity="0.3"/>
<ellipse cx="1281.4" cy="476.089" rx="1.05323" ry="1.09071" fill="white" fill-opacity="0.3"/>
<ellipse cx="1154.13" cy="817.762" rx="1.05323" ry="1.09071" fill="white" fill-opacity="0.3"/>
<ellipse cx="899.397" cy="607.811" rx="1.05323" ry="1.09071" fill="white" fill-opacity="0.3"/>
<ellipse cx="43.0068" cy="369.505" rx="1.05323" ry="1.09071" fill="white" fill-opacity="0.3"/>
<ellipse cx="1112.56" cy="579.08" rx="1.05323" ry="1.09071" fill="white" fill-opacity="0.3"/>
<ellipse cx="724.139" cy="572.488" rx="1.05323" ry="1.09071" fill="white" fill-opacity="0.3"/>
<ellipse cx="461.617" cy="588.895" rx="1.05323" ry="1.09071" fill="white" fill-opacity="0.3"/>
<ellipse cx="1255.94" cy="181.196" rx="1.05323" ry="1.09071" fill="white" fill-opacity="0.3"/>
<ellipse cx="232.566" cy="700.581" rx="1.05323" ry="1.09071" fill="white" fill-opacity="0.3"/>
<ellipse cx="1152.6" cy="850.008" rx="1.05323" ry="1.09071" fill="white" fill-opacity="0.3"/>
<ellipse cx="935.286" cy="362.076" rx="1.05323" ry="1.09071" fill="white" fill-opacity="0.3"/>
<ellipse cx="788.382" cy="296.895" rx="1.05323" ry="1.09071" fill="white" fill-opacity="0.3"/>
<ellipse cx="530.334" cy="364.53" rx="1.05323" ry="1.09071" fill="white" fill-opacity="0.3"/>
<ellipse cx="1181.65" cy="786.594" rx="1.05323" ry="1.09071" fill="white" fill-opacity="0.3"/>
<ellipse cx="919.253" cy="145.613" rx="1.05323" ry="1.09071" fill="white" fill-opacity="0.3"/>
<ellipse cx="274.818" cy="225.486" rx="1.05323" ry="1.09071" fill="white" fill-opacity="0.3"/>
<ellipse cx="12.8484" cy="477.867" rx="1.05323" ry="1.09071" fill="white" fill-opacity="0.3"/>
<ellipse cx="95.4179" cy="849.762" rx="1.05323" ry="1.09071" fill="white" fill-opacity="0.3"/>
<ellipse cx="1446.7" cy="439.58" rx="1.05323" ry="1.09071" fill="white" fill-opacity="0.3"/>
<ellipse cx="723.41" cy="150.627" rx="1.05323" ry="1.09071" fill="white" fill-opacity="0.3"/>
<ellipse cx="1035.76" cy="964.526" rx="1.05323" ry="1.09071" fill="white" fill-opacity="0.3"/>
<ellipse cx="1399.31" cy="346.475" rx="1.05323" ry="1.09071" fill="white" fill-opacity="0.3"/>
<ellipse cx="1186.57" cy="334.321" rx="1.05323" ry="1.09071" fill="white" fill-opacity="0.3"/>
<ellipse cx="694.83" cy="294.772" rx="1.05323" ry="1.09071" fill="white" fill-opacity="0.3"/>
<ellipse cx="1225.27" cy="881.136" rx="1.05323" ry="1.09071" fill="white" fill-opacity="0.3"/>
<ellipse cx="1083.05" cy="758.533" rx="1.05323" ry="1.09071" fill="white" fill-opacity="0.3"/>
<ellipse cx="579.688" cy="205.728" rx="1.05323" ry="1.09071" fill="white" fill-opacity="0.3"/>
<ellipse cx="1476.02" cy="243.226" rx="1.05323" ry="1.09071" fill="white" fill-opacity="0.3"/>
<ellipse cx="1410.54" cy="154.133" rx="1.05323" ry="1.09071" fill="white" fill-opacity="0.3"/>
<ellipse cx="1140.41" cy="214.447" rx="1.05323" ry="1.09071" fill="white" fill-opacity="0.3"/>
<ellipse cx="969.043" cy="847.399" rx="1.05323" ry="1.09071" fill="white" fill-opacity="0.3"/>
<ellipse cx="169.271" cy="491.455" rx="1.05323" ry="1.09071" fill="white" fill-opacity="0.3"/>
<ellipse cx="462.767" cy="802.159" rx="1.05323" ry="1.09071" fill="white" fill-opacity="0.3"/>
<ellipse cx="215.904" cy="542.601" rx="1.05323" ry="1.09071" fill="white" fill-opacity="0.3"/>
<ellipse cx="469.288" cy="184.199" rx="1.05323" ry="1.09071" fill="white" fill-opacity="0.3"/>
<ellipse cx="93.1541" cy="904.718" rx="1.05323" ry="1.09071" fill="white" fill-opacity="0.3"/>
<ellipse cx="840.967" cy="507.916" rx="1.05323" ry="1.09071" fill="white" fill-opacity="0.3"/>
<ellipse cx="1110.85" cy="960.867" rx="1.05323" ry="1.09071" fill="white" fill-opacity="0.3"/>
<ellipse cx="193.034" cy="489.165" rx="1.05323" ry="1.09071" fill="white" fill-opacity="0.3"/>
<ellipse cx="601.396" cy="655.408" rx="1.05323" ry="1.09071" fill="white" fill-opacity="0.3"/>
<ellipse cx="203.131" cy="290.671" rx="1.05323" ry="1.09071" fill="white" fill-opacity="0.3"/>
<ellipse cx="480.137" cy="497.543" rx="1.05323" ry="1.09071" fill="white" fill-opacity="0.3"/>
<ellipse cx="598.133" cy="325.874" rx="1.05323" ry="1.09071" fill="white" fill-opacity="0.3"/>
<ellipse cx="1430.6" cy="897.712" rx="1.05323" ry="1.09071" fill="white" fill-opacity="0.3"/>
<ellipse cx="497.2" cy="390.614" rx="1.57985" ry="1.63583" fill="white" fill-opacity="0.3"/>
<ellipse cx="427.431" cy="370.719" rx="1.57985" ry="1.63583" fill="white" fill-opacity="0.3"/>
<ellipse cx="1383.65" cy="933.124" rx="1.57985" ry="1.63583" fill="white" fill-opacity="0.3"/>
<ellipse cx="1104.87" cy="415.615" rx="1.57985" ry="1.63583" fill="white" fill-opacity="0.3"/>
<ellipse cx="1264.54" cy="128.603" rx="1.57985" ry="1.63583" fill="white" fill-opacity="0.3"/>
<ellipse cx="463.25" cy="919.574" rx="1.57985" ry="1.63583" fill="white" fill-opacity="0.3"/>
<ellipse cx="1412.34" cy="317.582" rx="1.57985" ry="1.63583" fill="white" fill-opacity="0.3"/>
<ellipse cx="778.292" cy="374.22" rx="1.57985" ry="1.63583" fill="white" fill-opacity="0.3"/>
<ellipse cx="476.755" cy="304.932" rx="1.57985" ry="1.63583" fill="white" fill-opacity="0.3"/>
<ellipse cx="435.707" cy="384.466" rx="1.57985" ry="1.63583" fill="white" fill-opacity="0.3"/>
<ellipse cx="226.294" cy="347.303" rx="1.57985" ry="1.63583" fill="white" fill-opacity="0.3"/>
<ellipse cx="1390.93" cy="443.083" rx="1.57985" ry="1.63583" fill="white" fill-opacity="0.3"/>
<ellipse cx="1263.04" cy="233.982" rx="1.57985" ry="1.63583" fill="white" fill-opacity="0.3"/>
<ellipse cx="685.304" cy="43.0388" rx="1.57985" ry="1.63583" fill="white" fill-opacity="0.3"/>
<ellipse cx="471.419" cy="460.607" rx="1.57985" ry="1.63583" fill="white" fill-opacity="0.3"/>
<ellipse cx="1329.53" cy="704.348" rx="1.57985" ry="1.63583" fill="white" fill-opacity="0.3"/>
<ellipse cx="1444.66" cy="942.253" rx="1.57985" ry="1.63583" fill="white" fill-opacity="0.3"/>
<ellipse cx="501.444" cy="482.275" rx="1.57985" ry="1.63583" fill="white" fill-opacity="0.3"/>
<ellipse cx="1262.85" cy="208.752" rx="1.57985" ry="1.63583" fill="white" fill-opacity="0.3"/>
<ellipse cx="241.986" cy="252.737" rx="1.57985" ry="1.63583" fill="white" fill-opacity="0.3"/>
<ellipse cx="1002.71" cy="436.14" rx="1.57985" ry="1.63583" fill="white" fill-opacity="0.3"/>
<ellipse cx="1278.79" cy="302.633" rx="1.57985" ry="1.63583" fill="white" fill-opacity="0.3"/>
<ellipse cx="56.7145" cy="659.587" rx="1.57985" ry="1.63583" fill="white" fill-opacity="0.3"/>
<ellipse cx="0.970477" cy="16.0135" rx="1.57985" ry="1.63583" fill="white" fill-opacity="0.3"/>
<ellipse cx="1046.74" cy="846.045" rx="1.57985" ry="1.63583" fill="white" fill-opacity="0.3"/>
<ellipse cx="702.301" cy="148.207" rx="1.57985" ry="1.63583" fill="white" fill-opacity="0.3"/>
<ellipse cx="1270.23" cy="574.27" rx="1.57985" ry="1.63583" fill="white" fill-opacity="0.3"/>
<ellipse cx="1280.86" cy="898.494" rx="1.57985" ry="1.63583" fill="white" fill-opacity="0.3"/>
<ellipse cx="1433.04" cy="752.831" rx="1.57985" ry="1.63583" fill="white" fill-opacity="0.3"/>
<ellipse cx="420.35" cy="824.909" rx="1.57985" ry="1.63583" fill="white" fill-opacity="0.3"/>
<ellipse cx="1054.34" cy="628.928" rx="1.57985" ry="1.63583" fill="white" fill-opacity="0.3"/>
<ellipse cx="501.226" cy="917.758" rx="1.57985" ry="1.63583" fill="white" fill-opacity="0.3"/>
<ellipse cx="1067.43" cy="86.2682" rx="1.57985" ry="1.63583" fill="white" fill-opacity="0.3"/>
<ellipse cx="11.2276" cy="737.185" rx="1.57985" ry="1.63583" fill="white" fill-opacity="0.3"/>
<ellipse cx="1351.94" cy="781.557" rx="1.57985" ry="1.63583" fill="white" fill-opacity="0.3"/>
<ellipse cx="1501.1" cy="879.097" rx="1.57985" ry="1.63583" fill="white" fill-opacity="0.3"/>
<ellipse cx="1139.95" cy="905.983" rx="1.57985" ry="1.63583" fill="white" fill-opacity="0.3"/>
<ellipse cx="1196.11" cy="1.63147" rx="0.526617" ry="0.545042" fill="white" fill-opacity="0.3"/>
<ellipse cx="584.611" cy="541.686" rx="0.526617" ry="0.545042" fill="white" fill-opacity="0.3"/>
<ellipse cx="605.956" cy="283.803" rx="0.526617" ry="0.545042" fill="white" fill-opacity="0.3"/>
<ellipse cx="35.3983" cy="395.792" rx="0.526617" ry="0.545042" fill="white" fill-opacity="0.3"/>
<ellipse cx="1245.6" cy="394.018" rx="0.526617" ry="0.545042" fill="white" fill-opacity="0.3"/>
<ellipse cx="285.94" cy="126.617" rx="0.526617" ry="0.545042" fill="white" fill-opacity="0.3"/>
<ellipse cx="488.654" cy="647.978" rx="0.526617" ry="0.545042" fill="white" fill-opacity="0.3"/>
<ellipse cx="210.517" cy="817.866" rx="0.526617" ry="0.545042" fill="white" fill-opacity="0.3"/>
<ellipse cx="1363.56" cy="656.527" rx="0.526617" ry="0.545042" fill="white" fill-opacity="0.3"/>
<ellipse cx="687.007" cy="573.821" rx="0.526617" ry="0.545042" fill="white" fill-opacity="0.3"/>
<ellipse cx="1026.8" cy="890.181" rx="0.526617" ry="0.545042" fill="white" fill-opacity="0.3"/>
<ellipse cx="1245.84" cy="974.742" rx="0.526617" ry="0.545042" fill="white" fill-opacity="0.3"/>
<ellipse cx="1167.34" cy="846.586" rx="0.526617" ry="0.545042" fill="white" fill-opacity="0.3"/>
<ellipse cx="100.713" cy="634.881" rx="0.526617" ry="0.545042" fill="white" fill-opacity="0.3"/>
<ellipse cx="114.346" cy="98.7928" rx="0.526617" ry="0.545042" fill="white" fill-opacity="0.3"/>
<ellipse cx="1415.49" cy="553.181" rx="0.526617" ry="0.545042" fill="white" fill-opacity="0.3"/>
<ellipse cx="268.15" cy="282.661" rx="0.526617" ry="0.545042" fill="white" fill-opacity="0.3"/>
<ellipse cx="323.556" cy="352.972" rx="0.526617" ry="0.545042" fill="white" fill-opacity="0.3"/>
<ellipse cx="271.722" cy="395.653" rx="0.526617" ry="0.545042" fill="white" fill-opacity="0.3"/>
<ellipse cx="835.372" cy="840.485" rx="0.526617" ry="0.545042" fill="white" fill-opacity="0.3"/>
<ellipse cx="994.153" cy="836.985" rx="0.526617" ry="0.545042" fill="white" fill-opacity="0.3"/>
<ellipse cx="799.695" cy="482.666" rx="0.526617" ry="0.545042" fill="white" fill-opacity="0.3"/>
<ellipse cx="1179.68" cy="556.505" rx="0.526617" ry="0.545042" fill="white" fill-opacity="0.3"/>
<ellipse cx="496.341" cy="723.819" rx="0.526617" ry="0.545042" fill="white" fill-opacity="0.3"/>
<ellipse cx="1229.17" cy="151.875" rx="0.526617" ry="0.545042" fill="white" fill-opacity="0.3"/>
<ellipse cx="1025.72" cy="270.142" rx="0.526617" ry="0.545042" fill="white" fill-opacity="0.3"/>
<ellipse cx="118.286" cy="60.5756" rx="0.526617" ry="0.545042" fill="white" fill-opacity="0.3"/>
<ellipse cx="40.7786" cy="91.5911" rx="0.526617" ry="0.545042" fill="white" fill-opacity="0.3"/>
<ellipse cx="1502.57" cy="149.188" rx="0.526617" ry="0.545042" fill="white" fill-opacity="0.3"/>
<ellipse cx="716.792" cy="262.461" rx="0.526617" ry="0.545042" fill="white" fill-opacity="0.3"/>
<ellipse cx="735.696" cy="849.829" rx="0.526617" ry="0.545042" fill="white" fill-opacity="0.3"/>
<ellipse cx="900.035" cy="368.904" rx="0.526617" ry="0.545042" fill="white" fill-opacity="0.3"/>
<ellipse cx="584.381" cy="112.01" rx="0.526617" ry="0.545042" fill="white" fill-opacity="0.3"/>
<ellipse cx="176.04" cy="673.39" rx="0.526617" ry="0.545042" fill="white" fill-opacity="0.3"/>
<ellipse cx="1392.53" cy="546.974" rx="0.526617" ry="0.545042" fill="white" fill-opacity="0.3"/>
<ellipse cx="358.945" cy="579.755" rx="0.526617" ry="0.545042" fill="white" fill-opacity="0.3"/>
<ellipse cx="352.706" cy="37.4205" rx="0.526617" ry="0.545042" fill="white" fill-opacity="0.3"/>
<ellipse cx="1410.57" cy="536.18" rx="0.526617" ry="0.545042" fill="white" fill-opacity="0.3"/>
<ellipse cx="1333.83" cy="896.82" rx="0.526617" ry="0.545042" fill="white" fill-opacity="0.3"/>
<ellipse cx="969.933" cy="429.513" rx="0.526617" ry="0.545042" fill="white" fill-opacity="0.3"/>
<ellipse cx="942.94" cy="54.1085" rx="0.526617" ry="0.545042" fill="white" fill-opacity="0.3"/>
<ellipse cx="134.728" cy="88.7402" rx="0.526617" ry="0.545042" fill="white" fill-opacity="0.3"/>
<ellipse cx="315.958" cy="704.643" rx="0.526617" ry="0.545042" fill="white" fill-opacity="0.3"/>
<ellipse cx="920.065" cy="975.361" rx="0.526617" ry="0.545042" fill="white" fill-opacity="0.3"/>
<ellipse cx="1364.58" cy="963.373" rx="0.526617" ry="0.545042" fill="white" fill-opacity="0.3"/>
<ellipse cx="883.99" cy="148.113" rx="0.526617" ry="0.545042" fill="white" fill-opacity="0.3"/>
<ellipse cx="602.757" cy="413.787" rx="0.526617" ry="0.545042" fill="white" fill-opacity="0.3"/>
<ellipse cx="542.084" cy="117.979" rx="0.526617" ry="0.545042" fill="white" fill-opacity="0.3"/>
<ellipse cx="76.1882" cy="333.148" rx="0.526617" ry="0.545042" fill="white" fill-opacity="0.3"/>
<ellipse cx="1036.95" cy="220.958" rx="0.526617" ry="0.545042" fill="white" fill-opacity="0.3"/>
<ellipse cx="896.655" cy="207.099" rx="0.526617" ry="0.545042" fill="white" fill-opacity="0.3"/>
<ellipse cx="1147.24" cy="661.133" rx="0.526617" ry="0.545042" fill="white" fill-opacity="0.3"/>
<ellipse cx="596.045" cy="32.4038" rx="0.526617" ry="0.545042" fill="white" fill-opacity="0.3"/>
<ellipse cx="176.346" cy="929.115" rx="0.526617" ry="0.545042" fill="white" fill-opacity="0.3"/>
<ellipse cx="387.429" cy="716.611" rx="0.526617" ry="0.545042" fill="white" fill-opacity="0.3"/>
<ellipse cx="395.918" cy="444.243" rx="0.526617" ry="0.545042" fill="white" fill-opacity="0.3"/>
<ellipse cx="862.531" cy="709.875" rx="0.526617" ry="0.545042" fill="white" fill-opacity="0.3"/>
<ellipse cx="204.316" cy="735.305" rx="0.526617" ry="0.545042" fill="white" fill-opacity="0.3"/>
<ellipse cx="849.279" cy="479.962" rx="0.526617" ry="0.545042" fill="white" fill-opacity="0.3"/>
<ellipse cx="639.06" cy="190.914" rx="0.526617" ry="0.545042" fill="white" fill-opacity="0.3"/>
<ellipse cx="206.752" cy="202.581" rx="0.526617" ry="0.545042" fill="white" fill-opacity="0.3"/>
<ellipse cx="35.3937" cy="720.032" rx="0.526617" ry="0.545042" fill="white" fill-opacity="0.3"/>
<ellipse cx="1074.47" cy="756.162" rx="0.526617" ry="0.545042" fill="white" fill-opacity="0.3"/>
<ellipse cx="179.107" cy="892.081" rx="0.526617" ry="0.545042" fill="white" fill-opacity="0.3"/>
<ellipse cx="1042.62" cy="127.577" rx="0.526617" ry="0.545042" fill="white" fill-opacity="0.3"/>
<ellipse cx="846.966" cy="692.382" rx="0.526617" ry="0.545042" fill="white" fill-opacity="0.3"/>
<ellipse cx="344.867" cy="262.425" rx="0.526617" ry="0.545042" fill="white" fill-opacity="0.3"/>
<ellipse cx="1134.61" cy="885.97" rx="0.526617" ry="0.545042" fill="white" fill-opacity="0.3"/>
<ellipse cx="137.575" cy="597.557" rx="0.526617" ry="0.545042" fill="white" fill-opacity="0.3"/>
<ellipse cx="50.213" cy="764.94" rx="0.526617" ry="0.545042" fill="white" fill-opacity="0.3"/>
<ellipse cx="1390.53" cy="957.066" rx="0.526617" ry="0.545042" fill="white" fill-opacity="0.3"/>
<ellipse cx="1466.53" cy="811.461" rx="0.526617" ry="0.545042" fill="white" fill-opacity="0.3"/>
<ellipse cx="656.225" cy="122.115" rx="0.526617" ry="0.545042" fill="white" fill-opacity="0.3"/>
<ellipse cx="4.76172" cy="334.516" rx="0.526617" ry="0.545042" fill="white" fill-opacity="0.3"/>
<ellipse cx="540.211" cy="768.376" rx="0.526617" ry="0.545042" fill="white" fill-opacity="0.3"/>
<ellipse cx="663.429" cy="202.105" rx="0.526617" ry="0.545042" fill="white" fill-opacity="0.3"/>
<ellipse cx="925.955" cy="671.177" rx="0.526617" ry="0.545042" fill="white" fill-opacity="0.3"/>
<ellipse cx="66.438" cy="245.96" rx="0.526617" ry="0.545042" fill="white" fill-opacity="0.3"/>
<ellipse cx="1492.29" cy="154.809" rx="0.526617" ry="0.545042" fill="white" fill-opacity="0.3"/>
<ellipse cx="92.6021" cy="325.702" rx="0.526617" ry="0.545042" fill="white" fill-opacity="0.3"/>
<ellipse cx="545.776" cy="116.42" rx="0.526617" ry="0.545042" fill="white" fill-opacity="0.3"/>
<ellipse cx="1288.29" cy="42.15" rx="0.526617" ry="0.545042" fill="white" fill-opacity="0.3"/>
<ellipse cx="993.914" cy="806.992" rx="0.526617" ry="0.545042" fill="white" fill-opacity="0.3"/>
<ellipse cx="167.216" cy="11.7943" rx="0.526617" ry="0.545042" fill="white" fill-opacity="0.3"/>
<ellipse cx="1390.77" cy="487.087" rx="0.526617" ry="0.545042" fill="white" fill-opacity="0.3"/>
<ellipse cx="1224.32" cy="767.926" rx="0.526617" ry="0.545042" fill="white" fill-opacity="0.3"/>
<ellipse cx="903.425" cy="444.002" rx="0.526617" ry="0.545042" fill="white" fill-opacity="0.3"/>
<ellipse cx="1056.12" cy="467.48" rx="0.526617" ry="0.545042" fill="white" fill-opacity="0.3"/>
<ellipse cx="4.94031" cy="345.313" rx="0.526617" ry="0.545042" fill="white" fill-opacity="0.3"/>
<ellipse cx="430.919" cy="362.999" rx="0.526617" ry="0.545042" fill="white" fill-opacity="0.3"/>
<ellipse cx="1398.79" cy="760.767" rx="0.526617" ry="0.545042" fill="white" fill-opacity="0.3"/>
<ellipse cx="908.943" cy="126.644" rx="0.526617" ry="0.545042" fill="white" fill-opacity="0.3"/>
<ellipse cx="914.254" cy="768.589" rx="0.526617" ry="0.545042" fill="white" fill-opacity="0.3"/>
<ellipse cx="1460.91" cy="75.8651" rx="0.526617" ry="0.545042" fill="white" fill-opacity="0.3"/>
<ellipse cx="23.0892" cy="150.919" rx="0.526617" ry="0.545042" fill="white" fill-opacity="0.3"/>
<ellipse cx="583.267" cy="311.332" rx="0.526617" ry="0.545042" fill="white" fill-opacity="0.3"/>
<ellipse cx="446.672" cy="866.578" rx="0.526617" ry="0.545042" fill="white" fill-opacity="0.3"/>
<ellipse cx="431.505" cy="419.328" rx="0.526617" ry="0.545042" fill="white" fill-opacity="0.3"/>
<ellipse cx="345.212" cy="170.186" rx="0.526617" ry="0.545042" fill="white" fill-opacity="0.3"/>
<ellipse cx="775.264" cy="140.334" rx="0.526617" ry="0.545042" fill="white" fill-opacity="0.3"/>
<ellipse cx="557.307" cy="94.0304" rx="0.526617" ry="0.545042" fill="white" fill-opacity="0.3"/>
<ellipse cx="1006.59" cy="94.5291" rx="0.526617" ry="0.545042" fill="white" fill-opacity="0.3"/>
<ellipse cx="346.757" cy="58.4385" rx="0.526617" ry="0.545042" fill="white" fill-opacity="0.3"/>
<ellipse cx="875.797" cy="270.77" rx="0.526617" ry="0.545042" fill="white" fill-opacity="0.3"/>
<ellipse cx="134.118" cy="973.07" rx="0.526617" ry="0.545042" fill="white" fill-opacity="0.3"/>
<ellipse cx="1412.94" cy="771.129" rx="0.526617" ry="0.545042" fill="white" fill-opacity="0.3"/>
<ellipse cx="215.061" cy="609.14" rx="0.526617" ry="0.545042" fill="white" fill-opacity="0.3"/>
<ellipse cx="1360.36" cy="0.684568" rx="0.526617" ry="0.545042" fill="white" fill-opacity="0.3"/>
<ellipse cx="1283.42" cy="504.495" rx="0.526617" ry="0.545042" fill="white" fill-opacity="0.3"/>
<ellipse cx="337.034" cy="313.737" rx="0.526617" ry="0.545042" fill="white" fill-opacity="0.3"/>
<ellipse cx="883.556" cy="757.48" rx="0.526617" ry="0.545042" fill="white" fill-opacity="0.3"/>
<ellipse cx="289.045" cy="933.06" rx="0.526617" ry="0.545042" fill="white" fill-opacity="0.3"/>
<ellipse cx="1289.54" cy="619.014" rx="0.526617" ry="0.545042" fill="white" fill-opacity="0.3"/>
<ellipse cx="715.51" cy="396.919" rx="0.526617" ry="0.545042" fill="white" fill-opacity="0.3"/>
<ellipse cx="383.053" cy="143.52" rx="0.526617" ry="0.545042" fill="white" fill-opacity="0.3"/>
<ellipse cx="617.992" cy="149.684" rx="0.526617" ry="0.545042" fill="white" fill-opacity="0.3"/>
<ellipse cx="514.026" cy="125.58" rx="0.526617" ry="0.545042" fill="white" fill-opacity="0.3"/>
<ellipse cx="1434.65" cy="694.977" rx="0.526617" ry="0.545042" fill="white" fill-opacity="0.3"/>
<ellipse cx="929.704" cy="214.407" rx="0.526617" ry="0.545042" fill="white" fill-opacity="0.3"/>
<ellipse cx="582.588" cy="13.6654" rx="0.526617" ry="0.545042" fill="white" fill-opacity="0.3"/>
<ellipse cx="464.034" cy="38.6245" rx="0.526617" ry="0.545042" fill="white" fill-opacity="0.3"/>
<ellipse cx="870.023" cy="85.6865" rx="0.526617" ry="0.545042" fill="white" fill-opacity="0.3"/>
<ellipse cx="735.296" cy="796.81" rx="0.526617" ry="0.545042" fill="white" fill-opacity="0.3"/>
<ellipse cx="910.696" cy="246.247" rx="0.526617" ry="0.545042" fill="white" fill-opacity="0.3"/>
<ellipse cx="1075.16" cy="446.058" rx="0.526617" ry="0.545042" fill="white" fill-opacity="0.3"/>
<ellipse cx="1312.39" cy="177.317" rx="0.526617" ry="0.545042" fill="white" fill-opacity="0.3"/>
<ellipse cx="352.83" cy="586.733" rx="0.526617" ry="0.545042" fill="white" fill-opacity="0.3"/>
<ellipse cx="251.479" cy="10.6648" rx="0.526617" ry="0.545042" fill="white" fill-opacity="0.3"/>
<ellipse cx="481.804" cy="170.781" rx="0.526617" ry="0.545042" fill="white" fill-opacity="0.3"/>
<ellipse cx="1288.95" cy="916.655" rx="0.526617" ry="0.545042" fill="white" fill-opacity="0.3"/>
<ellipse cx="853.101" cy="210.495" rx="0.526617" ry="0.545042" fill="white" fill-opacity="0.3"/>
<ellipse cx="547.714" cy="224.217" rx="0.526617" ry="0.545042" fill="white" fill-opacity="0.3"/>
<ellipse cx="1389.77" cy="443.503" rx="0.526617" ry="0.545042" fill="white" fill-opacity="0.3"/>
<ellipse cx="1179.52" cy="439.646" rx="0.526617" ry="0.545042" fill="white" fill-opacity="0.3"/>
<ellipse cx="1049.81" cy="878.977" rx="0.526617" ry="0.545042" fill="white" fill-opacity="0.3"/>
<ellipse cx="396.99" cy="758.378" rx="0.526617" ry="0.545042" fill="white" fill-opacity="0.3"/>
<ellipse cx="1426.16" cy="832.217" rx="0.526617" ry="0.545042" fill="white" fill-opacity="0.3"/>
<ellipse cx="55.3318" cy="224.472" rx="0.526617" ry="0.545042" fill="white" fill-opacity="0.3"/>
<ellipse cx="699.816" cy="315.841" rx="0.526617" ry="0.545042" fill="white" fill-opacity="0.3"/>
<ellipse cx="852.354" cy="714.085" rx="0.526617" ry="0.545042" fill="white" fill-opacity="0.3"/>
<ellipse cx="445.67" cy="67.6265" rx="0.526617" ry="0.545042" fill="white" fill-opacity="0.3"/>
<ellipse cx="838.136" cy="817.959" rx="0.526617" ry="0.545042" fill="white" fill-opacity="0.3"/>
<ellipse cx="1492.73" cy="129.332" rx="0.526617" ry="0.545042" fill="white" fill-opacity="0.3"/>
<ellipse cx="609.319" cy="586.529" rx="0.526617" ry="0.545042" fill="white" fill-opacity="0.3"/>
<ellipse cx="341.903" cy="457.296" rx="0.526617" ry="0.545042" fill="white" fill-opacity="0.3"/>
<ellipse cx="421.974" cy="41.8186" rx="0.526617" ry="0.545042" fill="white" fill-opacity="0.3"/>
<ellipse cx="471.568" cy="168.043" rx="0.526617" ry="0.545042" fill="white" fill-opacity="0.3"/>
<ellipse cx="1303.46" cy="637.244" rx="0.526617" ry="0.545042" fill="white" fill-opacity="0.3"/>
<ellipse cx="990.067" cy="504.16" rx="0.526617" ry="0.545042" fill="white" fill-opacity="0.3"/>
<ellipse cx="93.6228" cy="677.672" rx="0.526617" ry="0.545042" fill="white" fill-opacity="0.3"/>
<ellipse cx="279.079" cy="930.2" rx="0.526617" ry="0.545042" fill="white" fill-opacity="0.3"/>
<ellipse cx="870.887" cy="966.15" rx="0.526617" ry="0.545042" fill="white" fill-opacity="0.3"/>
<ellipse cx="409.929" cy="562.861" rx="0.526617" ry="0.545042" fill="white" fill-opacity="0.3"/>
<ellipse cx="587.291" cy="153.62" rx="0.526617" ry="0.545042" fill="white" fill-opacity="0.3"/>
<ellipse cx="91.3912" cy="913.872" rx="0.526617" ry="0.545042" fill="white" fill-opacity="0.3"/>
<ellipse cx="1499.54" cy="600.043" rx="0.526617" ry="0.545042" fill="white" fill-opacity="0.3"/>
<ellipse cx="1335.64" cy="280.318" rx="0.526617" ry="0.545042" fill="white" fill-opacity="0.3"/>
<ellipse cx="702.657" cy="70.9952" rx="0.526617" ry="0.545042" fill="white" fill-opacity="0.3"/>
<ellipse cx="229.222" cy="809.634" rx="0.526617" ry="0.545042" fill="white" fill-opacity="0.3"/>
<ellipse cx="896.88" cy="304.911" rx="0.526617" ry="0.545042" fill="white" fill-opacity="0.3"/>
<ellipse cx="1470.13" cy="498.2" rx="0.526617" ry="0.545042" fill="white" fill-opacity="0.3"/>
<ellipse cx="1506.56" cy="430.847" rx="0.526617" ry="0.545042" fill="white" fill-opacity="0.3"/>
<ellipse cx="1162.77" cy="105.593" rx="0.526617" ry="0.545042" fill="white" fill-opacity="0.3"/>
<ellipse cx="1352.14" cy="261.419" rx="0.526617" ry="0.545042" fill="white" fill-opacity="0.3"/>
<ellipse cx="304.964" cy="780.928" rx="0.526617" ry="0.545042" fill="white" fill-opacity="0.3"/>
<ellipse cx="114.576" cy="283.133" rx="0.526617" ry="0.545042" fill="white" fill-opacity="0.3"/>
<ellipse cx="727.171" cy="466.963" rx="0.526617" ry="0.545042" fill="white" fill-opacity="0.3"/>
<ellipse cx="1369.23" cy="192.684" rx="0.526617" ry="0.545042" fill="white" fill-opacity="0.3"/>
<ellipse cx="1206.14" cy="547.111" rx="0.526617" ry="0.545042" fill="white" fill-opacity="0.3"/>
<ellipse cx="584.456" cy="913.243" rx="0.526617" ry="0.545042" fill="white" fill-opacity="0.3"/>
<ellipse cx="1304.27" cy="723.233" rx="0.526617" ry="0.545042" fill="white" fill-opacity="0.3"/>
<ellipse cx="1085.41" cy="866.946" rx="0.526617" ry="0.545042" fill="white" fill-opacity="0.3"/>
<ellipse cx="285.61" cy="722.612" rx="0.526617" ry="0.545042" fill="white" fill-opacity="0.3"/>
<ellipse cx="464.134" cy="399.089" rx="0.526617" ry="0.545042" fill="white" fill-opacity="0.3"/>
<ellipse cx="452.786" cy="216.225" rx="0.526617" ry="0.545042" fill="white" fill-opacity="0.3"/>
<ellipse cx="873.936" cy="541.923" rx="0.526617" ry="0.545042" fill="white" fill-opacity="0.3"/>
<ellipse cx="1216.06" cy="568.748" rx="0.526617" ry="0.545042" fill="white" fill-opacity="0.3"/>
<ellipse cx="294.736" cy="884.192" rx="0.526617" ry="0.545042" fill="white" fill-opacity="0.3"/>
<ellipse cx="734.087" cy="953.484" rx="0.526617" ry="0.545042" fill="white" fill-opacity="0.3"/>
<ellipse cx="343.07" cy="393.251" rx="0.526617" ry="0.545042" fill="white" fill-opacity="0.3"/>
<ellipse cx="1197.57" cy="267.141" rx="0.526617" ry="0.545042" fill="white" fill-opacity="0.3"/>
<ellipse cx="1056.34" cy="836.54" rx="0.526617" ry="0.545042" fill="white" fill-opacity="0.3"/>
<ellipse cx="1162.87" cy="694.226" rx="0.526617" ry="0.545042" fill="white" fill-opacity="0.3"/>
<ellipse cx="76.7031" cy="644.324" rx="0.526617" ry="0.545042" fill="white" fill-opacity="0.3"/>
<ellipse cx="559.264" cy="604.702" rx="0.526617" ry="0.545042" fill="white" fill-opacity="0.3"/>
<ellipse cx="603.291" cy="290.705" rx="0.526617" ry="0.545042" fill="white" fill-opacity="0.3"/>
<ellipse cx="19.4153" cy="17.0149" rx="0.526617" ry="0.545042" fill="white" fill-opacity="0.3"/>
<ellipse cx="645.965" cy="761.278" rx="0.526617" ry="0.545042" fill="white" fill-opacity="0.3"/>
<ellipse cx="343.104" cy="467.984" rx="0.526617" ry="0.545042" fill="white" fill-opacity="0.3"/>
<ellipse cx="327.178" cy="461.415" rx="0.526617" ry="0.545042" fill="white" fill-opacity="0.3"/>
<ellipse cx="909.622" cy="361.156" rx="0.526617" ry="0.545042" fill="white" fill-opacity="0.3"/>
<ellipse cx="113.867" cy="81.3102" rx="0.526617" ry="0.545042" fill="white" fill-opacity="0.3"/>
<ellipse cx="1039.71" cy="425.719" rx="0.526617" ry="0.545042" fill="white" fill-opacity="0.3"/>
<ellipse cx="1035.17" cy="282.414" rx="0.526617" ry="0.545042" fill="white" fill-opacity="0.3"/>
<ellipse cx="1448.81" cy="148.144" rx="0.526617" ry="0.545042" fill="white" fill-opacity="0.3"/>
<ellipse cx="167.367" cy="838.863" rx="0.526617" ry="0.545042" fill="white" fill-opacity="0.3"/>
<ellipse cx="636.102" cy="140.371" rx="0.526617" ry="0.545042" fill="white" fill-opacity="0.3"/>
<ellipse cx="1298.95" cy="24.9847" rx="0.526617" ry="0.545042" fill="white" fill-opacity="0.3"/>
<ellipse cx="1229.17" cy="42.8159" rx="0.526617" ry="0.545042" fill="white" fill-opacity="0.3"/>
<ellipse cx="948.19" cy="187.254" rx="0.526617" ry="0.545042" fill="white" fill-opacity="0.3"/>
<ellipse cx="142.959" cy="228.647" rx="0.526617" ry="0.545042" fill="white" fill-opacity="0.3"/>
<ellipse cx="930.828" cy="314.707" rx="0.526617" ry="0.545042" fill="white" fill-opacity="0.3"/>
<ellipse cx="1475.98" cy="836.058" rx="0.526617" ry="0.545042" fill="white" fill-opacity="0.3"/>
<ellipse cx="81.2113" cy="623.693" rx="0.526617" ry="0.545042" fill="white" fill-opacity="0.3"/>
<ellipse cx="915.338" cy="697.191" rx="0.526617" ry="0.545042" fill="white" fill-opacity="0.3"/>
<ellipse cx="1308.73" cy="966.761" rx="0.526617" ry="0.545042" fill="white" fill-opacity="0.3"/>
<ellipse cx="1420.67" cy="928.131" rx="0.526617" ry="0.545042" fill="white" fill-opacity="0.3"/>
<ellipse cx="448.483" cy="658.342" rx="0.526617" ry="0.545042" fill="white" fill-opacity="0.3"/>
<ellipse cx="469.639" cy="672.12" rx="0.526617" ry="0.545042" fill="white" fill-opacity="0.3"/>
<ellipse cx="784.921" cy="477.651" rx="0.526617" ry="0.545042" fill="white" fill-opacity="0.3"/>
<ellipse cx="841.834" cy="177.876" rx="0.526617" ry="0.545042" fill="white" fill-opacity="0.3"/>
<ellipse cx="1065.35" cy="796.414" rx="0.526617" ry="0.545042" fill="white" fill-opacity="0.3"/>
<ellipse cx="1022.18" cy="419.687" rx="0.526617" ry="0.545042" fill="white" fill-opacity="0.3"/>
<ellipse cx="1460.95" cy="584.364" rx="0.526617" ry="0.545042" fill="white" fill-opacity="0.3"/>
<ellipse cx="1319.75" cy="649.505" rx="0.526617" ry="0.545042" fill="white" fill-opacity="0.3"/>
<ellipse cx="68.1661" cy="491.734" rx="0.526617" ry="0.545042" fill="white" fill-opacity="0.3"/>
<ellipse cx="1310.31" cy="581.563" rx="0.526617" ry="0.545042" fill="white" fill-opacity="0.3"/>
<ellipse cx="944.541" cy="264.036" rx="0.526617" ry="0.545042" fill="white" fill-opacity="0.3"/>
<ellipse cx="1189.77" cy="774.193" rx="0.526617" ry="0.545042" fill="white" fill-opacity="0.3"/>
<ellipse cx="684.464" cy="741.97" rx="0.526617" ry="0.545042" fill="white" fill-opacity="0.3"/>
<ellipse cx="1032.72" cy="77.5244" rx="0.526617" ry="0.545042" fill="white" fill-opacity="0.3"/>
<ellipse cx="569.165" cy="871.031" rx="0.526617" ry="0.545042" fill="white" fill-opacity="0.3"/>
<ellipse cx="68.7744" cy="755.209" rx="0.526617" ry="0.545042" fill="white" fill-opacity="0.3"/>
<ellipse cx="359.256" cy="894.761" rx="0.526617" ry="0.545042" fill="white" fill-opacity="0.3"/>
<ellipse cx="743.673" cy="119.899" rx="0.526617" ry="0.545042" fill="white" fill-opacity="0.3"/>
<ellipse cx="276.473" cy="192.182" rx="0.526617" ry="0.545042" fill="white" fill-opacity="0.3"/>
<ellipse cx="615.009" cy="762.185" rx="0.526617" ry="0.545042" fill="white" fill-opacity="0.3"/>
<ellipse cx="1117.71" cy="246.263" rx="0.526617" ry="0.545042" fill="white" fill-opacity="0.3"/>
<ellipse cx="1364.02" cy="524.123" rx="0.526617" ry="0.545042" fill="white" fill-opacity="0.3"/>
<ellipse cx="1307.28" cy="977.324" rx="0.526617" ry="0.545042" fill="white" fill-opacity="0.3"/>
<ellipse cx="366.844" cy="502.364" rx="0.526617" ry="0.545042" fill="white" fill-opacity="0.3"/>
<ellipse cx="84.5328" cy="294.792" rx="0.526617" ry="0.545042" fill="white" fill-opacity="0.3"/>
<ellipse cx="1504.7" cy="108.266" rx="0.526617" ry="0.545042" fill="white" fill-opacity="0.3"/>
<ellipse cx="308.998" cy="245.961" rx="0.526617" ry="0.545042" fill="white" fill-opacity="0.3"/>
<ellipse cx="1031.27" cy="139.304" rx="0.526617" ry="0.545042" fill="white" fill-opacity="0.3"/>
<ellipse cx="1220.66" cy="368.606" rx="0.526617" ry="0.545042" fill="white" fill-opacity="0.3"/>
<ellipse cx="1401.9" cy="295.132" rx="0.526617" ry="0.545042" fill="white" fill-opacity="0.3"/>
<ellipse cx="1221.89" cy="489.993" rx="0.526617" ry="0.545042" fill="white" fill-opacity="0.3"/>
<ellipse cx="1393.5" cy="857.958" rx="0.526617" ry="0.545042" fill="white" fill-opacity="0.3"/>
<ellipse cx="587.258" cy="807.783" rx="0.526617" ry="0.545042" fill="white" fill-opacity="0.3"/>
<ellipse cx="100.757" cy="972.66" rx="0.526617" ry="0.545042" fill="white" fill-opacity="0.3"/>
<ellipse cx="1477.24" cy="164.961" rx="0.526617" ry="0.545042" fill="white" fill-opacity="0.3"/>
<ellipse cx="1227.55" cy="682.07" rx="0.526617" ry="0.545042" fill="white" fill-opacity="0.3"/>
<ellipse cx="673.279" cy="300.005" rx="0.526617" ry="0.545042" fill="white" fill-opacity="0.3"/>
<ellipse cx="493.634" cy="678.75" rx="0.526617" ry="0.545042" fill="white" fill-opacity="0.3"/>
<ellipse cx="1306.04" cy="358.221" rx="0.526617" ry="0.545042" fill="white" fill-opacity="0.3"/>
<ellipse cx="1335.06" cy="152.992" rx="0.526617" ry="0.545042" fill="white" fill-opacity="0.3"/>
<ellipse cx="261.481" cy="587.296" rx="0.526617" ry="0.545042" fill="white" fill-opacity="0.3"/>
<ellipse cx="1433.1" cy="261.186" rx="0.526617" ry="0.545042" fill="white" fill-opacity="0.3"/>
<ellipse cx="1026.03" cy="554.234" rx="0.526617" ry="0.545042" fill="white" fill-opacity="0.3"/>
<ellipse cx="1359.2" cy="938.558" rx="0.526617" ry="0.545042" fill="white" fill-opacity="0.3"/>
<ellipse cx="1126.93" cy="374.051" rx="0.526617" ry="0.545042" fill="white" fill-opacity="0.3"/>
<ellipse cx="1225.48" cy="816.58" rx="0.526617" ry="0.545042" fill="white" fill-opacity="0.3"/>
<ellipse cx="1450.67" cy="591.08" rx="0.526617" ry="0.545042" fill="white" fill-opacity="0.3"/>
<ellipse cx="1474.51" cy="701.284" rx="0.526617" ry="0.545042" fill="white" fill-opacity="0.3"/>
<ellipse cx="1449.01" cy="246.35" rx="0.526617" ry="0.545042" fill="white" fill-opacity="0.3"/>
<ellipse cx="936.894" cy="150.226" rx="0.526617" ry="0.545042" fill="white" fill-opacity="0.3"/>
<ellipse cx="1427.22" cy="161.276" rx="0.526617" ry="0.545042" fill="white" fill-opacity="0.3"/>
<ellipse cx="1305.12" cy="827.487" rx="0.526617" ry="0.545042" fill="white" fill-opacity="0.3"/>
<ellipse cx="1335.65" cy="101.25" rx="0.526617" ry="0.545042" fill="white" fill-opacity="0.3"/>
<ellipse cx="1493.97" cy="865.651" rx="0.526617" ry="0.545042" fill="white" fill-opacity="0.3"/>
<ellipse cx="586.615" cy="294.827" rx="0.526617" ry="0.545042" fill="white" fill-opacity="0.3"/>
<ellipse cx="791.57" cy="161.648" rx="0.526617" ry="0.545042" fill="white" fill-opacity="0.3"/>
<ellipse cx="467.109" cy="536.49" rx="0.526617" ry="0.545042" fill="white" fill-opacity="0.3"/>
<ellipse cx="1480.62" cy="868.891" rx="0.526617" ry="0.545042" fill="white" fill-opacity="0.3"/>
<ellipse cx="716.686" cy="169.454" rx="0.526617" ry="0.545042" fill="white" fill-opacity="0.3"/>
<ellipse cx="922.389" cy="65.1506" rx="0.526617" ry="0.545042" fill="white" fill-opacity="0.3"/>
<ellipse cx="183.008" cy="680.633" rx="0.526617" ry="0.545042" fill="white" fill-opacity="0.3"/>
<ellipse cx="940.924" cy="712.58" rx="0.526617" ry="0.545042" fill="white" fill-opacity="0.3"/>
<ellipse cx="762.323" cy="905.17" rx="0.526617" ry="0.545042" fill="white" fill-opacity="0.3"/>
<path d="M1281.8 139.204L1282.71 140.84H1280.89L1281.8 139.204Z" fill="white" fill-opacity="0.3"/>
<path d="M750.575 791.905L751.487 793.541H749.663L750.575 791.905Z" fill="white" fill-opacity="0.3"/>
<path d="M1420.11 15.3309L1421.02 16.967H1419.19L1420.11 15.3309Z" fill="white" fill-opacity="0.3"/>
<path d="M687.417 628.662L688.329 630.298H686.505L687.417 628.662Z" fill="white" fill-opacity="0.3"/>
<path d="M1120.91 845.2L1121.82 846.836H1119.99L1120.91 845.2Z" fill="white" fill-opacity="0.3"/>
<path d="M1199.11 466.314L1200.03 467.95H1198.2L1199.11 466.314Z" fill="white" fill-opacity="0.3"/>
<path d="M264.459 854.403L265.371 856.039H263.547L264.459 854.403Z" fill="white" fill-opacity="0.3"/>
<path d="M654.928 567.668L655.84 569.305H654.016L654.928 567.668Z" fill="white" fill-opacity="0.3"/>
<path d="M576.135 958.924L577.047 960.56H575.223L576.135 958.924Z" fill="white" fill-opacity="0.3"/>
<path d="M184.552 360.189L185.464 361.825H183.64L184.552 360.189Z" fill="white" fill-opacity="0.3"/>
<path d="M1297.54 166.259L1298.45 167.895H1296.63L1297.54 166.259Z" fill="white" fill-opacity="0.3"/>
<path d="M1331.29 272.758L1332.2 274.394H1330.38L1331.29 272.758Z" fill="white" fill-opacity="0.3"/>
<path d="M239.963 947.436L240.875 949.072H239.051L239.963 947.436Z" fill="white" fill-opacity="0.3"/>
<path d="M770.521 160.102L771.434 161.738H769.609L770.521 160.102Z" fill="white" fill-opacity="0.3"/>
<path d="M1098.36 360.682L1099.27 362.318H1097.45L1098.36 360.682Z" fill="white" fill-opacity="0.3"/>
<path d="M729.16 875.997L730.072 877.633H728.248L729.16 875.997Z" fill="white" fill-opacity="0.3"/>
<path d="M1319.78 518.591L1320.7 520.227H1318.87L1319.78 518.591Z" fill="white" fill-opacity="0.3"/>
<path d="M1417.33 785.097L1418.25 786.733H1416.42L1417.33 785.097Z" fill="white" fill-opacity="0.3"/>
<path d="M921.767 871.339L922.679 872.975H920.855L921.767 871.339Z" fill="white" fill-opacity="0.3"/>
<path d="M853.473 714.106L854.386 715.742H852.561L853.473 714.106Z" fill="white" fill-opacity="0.3"/>
<path d="M1409.9 389.648L1410.81 391.284H1408.99L1409.9 389.648Z" fill="white" fill-opacity="0.3"/>
<path d="M252.203 642.359L253.115 643.995H251.291L252.203 642.359Z" fill="white" fill-opacity="0.3"/>
<path d="M578.081 774.797L578.993 776.433H577.169L578.081 774.797Z" fill="white" fill-opacity="0.3"/>
<path d="M556.673 903.726L557.585 905.362H555.761L556.673 903.726Z" fill="white" fill-opacity="0.3"/>
<path d="M278.788 37.1866L279.011 38.046L279.841 38.2774L279.011 38.5087L278.788 39.3681L278.564 38.5087L277.734 38.2774L278.564 38.046L278.788 37.1866Z" fill="white" fill-opacity="0.3"/>
<path d="M143.378 497.422L143.602 498.282L144.432 498.513L143.602 498.744L143.378 499.604L143.155 498.744L142.325 498.513L143.155 498.282L143.378 497.422Z" fill="white" fill-opacity="0.3"/>
<path d="M1224.48 684.971L1224.7 685.83L1225.53 686.061L1224.7 686.293L1224.48 687.152L1224.25 686.293L1223.42 686.061L1224.25 685.83L1224.48 684.971Z" fill="white" fill-opacity="0.3"/>
<path d="M1214.08 249.011L1214.3 249.87L1215.13 250.102L1214.3 250.333L1214.08 251.192L1213.86 250.333L1213.03 250.102L1213.86 249.87L1214.08 249.011Z" fill="white" fill-opacity="0.3"/>
<path d="M713.101 160.899L713.324 161.758L714.154 161.99L713.324 162.221L713.101 163.08L712.878 162.221L712.048 161.99L712.878 161.758L713.101 160.899Z" fill="white" fill-opacity="0.3"/>
<path d="M662.461 421.141L662.684 422L663.514 422.231L662.684 422.463L662.461 423.322L662.237 422.463L661.407 422.231L662.237 422L662.461 421.141Z" fill="white" fill-opacity="0.3"/>
<path d="M957.445 620.729L957.669 621.588L958.499 621.819L957.669 622.051L957.445 622.91L957.222 622.051L956.392 621.819L957.222 621.588L957.445 620.729Z" fill="white" fill-opacity="0.3"/>
<path d="M241.866 121.594L242.09 122.453L242.92 122.684L242.09 122.916L241.866 123.775L241.643 122.916L240.813 122.684L241.643 122.453L241.866 121.594Z" fill="white" fill-opacity="0.3"/>
<path d="M21.5421 372.466L21.7656 373.325L22.5954 373.557L21.7656 373.788L21.5421 374.647L21.3187 373.788L20.4889 373.557L21.3187 373.325L21.5421 372.466Z" fill="white" fill-opacity="0.3"/>
<path d="M1037.96 412.303L1038.18 413.163L1039.01 413.394L1038.18 413.625L1037.96 414.485L1037.74 413.625L1036.91 413.394L1037.74 413.163L1037.96 412.303Z" fill="white" fill-opacity="0.3"/>
<path d="M274.485 767.415L274.708 768.274L275.538 768.506L274.708 768.737L274.485 769.596L274.261 768.737L273.431 768.506L274.261 768.274L274.485 767.415Z" fill="white" fill-opacity="0.3"/>
<path d="M586.041 808.202L586.264 809.062L587.094 809.293L586.264 809.524L586.041 810.384L585.818 809.524L584.988 809.293L585.818 809.062L586.041 808.202Z" fill="white" fill-opacity="0.3"/>
<path d="M507.201 539.584L507.424 540.444L508.254 540.675L507.424 540.906L507.201 541.766L506.977 540.906L506.148 540.675L506.977 540.444L507.201 539.584Z" fill="white" fill-opacity="0.3"/>
<path d="M604.443 0L604.667 0.859332L605.497 1.09071L604.667 1.32208L604.443 2.18141L604.22 1.32208L603.39 1.09071L604.22 0.859332L604.443 0Z" fill="white" fill-opacity="0.3"/>
<path d="M1242.77 112.289L1243 113.149L1243.83 113.38L1243 113.612L1242.77 114.471L1242.55 113.612L1241.72 113.38L1242.55 113.149L1242.77 112.289Z" fill="white" fill-opacity="0.3"/>
<path d="M399.784 817.156L400.008 818.016L400.837 818.247L400.008 818.478L399.784 819.338L399.561 818.478L398.731 818.247L399.561 818.016L399.784 817.156Z" fill="white" fill-opacity="0.3"/>
<path d="M795.373 598.971L795.597 599.83L796.427 600.061L795.597 600.293L795.373 601.152L795.15 600.293L794.32 600.061L795.15 599.83L795.373 598.971Z" fill="white" fill-opacity="0.3"/>
<path d="M1033.95 540.466L1034.18 541.326L1035.01 541.557L1034.18 541.788L1033.95 542.648L1033.73 541.788L1032.9 541.557L1033.73 541.326L1033.95 540.466Z" fill="white" fill-opacity="0.3"/>
<path d="M341.696 375.19L341.919 376.049L342.749 376.28L341.919 376.512L341.696 377.371L341.472 376.512L340.642 376.28L341.472 376.049L341.696 375.19Z" fill="white" fill-opacity="0.3"/>
<path d="M431.629 482.422L431.853 483.281L432.682 483.512L431.853 483.744L431.629 484.603L431.406 483.744L430.576 483.512L431.406 483.281L431.629 482.422Z" fill="white" fill-opacity="0.3"/>
<path d="M563.459 178.625L563.682 179.484L564.512 179.715L563.682 179.947L563.459 180.806L563.235 179.947L562.406 179.715L563.235 179.484L563.459 178.625Z" fill="white" fill-opacity="0.3"/>
<path d="M1463.07 326.388L1463.29 327.248L1464.12 327.479L1463.29 327.71L1463.07 328.57L1462.84 327.71L1462.01 327.479L1462.84 327.248L1463.07 326.388Z" fill="white" fill-opacity="0.3"/>
<path d="M1466.62 929.83L1466.84 930.69L1467.67 930.921L1466.84 931.152L1466.62 932.012L1466.39 931.152L1465.56 930.921L1466.39 930.69L1466.62 929.83Z" fill="white" fill-opacity="0.3"/>
<path d="M308.989 560.823L309.212 561.683L310.042 561.914L309.212 562.145L308.989 563.005L308.765 562.145L307.935 561.914L308.765 561.683L308.989 560.823Z" fill="white" fill-opacity="0.3"/>
<path d="M377.392 453.208L377.615 454.068L378.445 454.299L377.615 454.53L377.392 455.39L377.169 454.53L376.339 454.299L377.169 454.068L377.392 453.208Z" fill="white" fill-opacity="0.3"/>
<path d="M391.176 751.837L391.399 752.696L392.229 752.928L391.399 753.159L391.176 754.019L390.952 753.159L390.122 752.928L390.952 752.696L391.176 751.837Z" fill="white" fill-opacity="0.3"/>
<path d="M1083.39 517.693L1083.61 518.552L1084.44 518.784L1083.61 519.015L1083.39 519.874L1083.16 519.015L1082.33 518.784L1083.16 518.552L1083.39 517.693Z" fill="white" fill-opacity="0.3"/>
<path d="M327.437 517.728L327.661 518.587L328.49 518.818L327.661 519.05L327.437 519.909L327.214 519.05L326.384 518.818L327.214 518.587L327.437 517.728Z" fill="white" fill-opacity="0.3"/>
<path d="M345.822 810.936L346.046 811.796L346.876 812.027L346.046 812.258L345.822 813.118L345.599 812.258L344.769 812.027L345.599 811.796L345.822 810.936Z" fill="white" fill-opacity="0.3"/>
<path d="M819.339 192.859L819.563 193.718L820.392 193.95L819.563 194.181L819.339 195.04L819.116 194.181L818.286 193.95L819.116 193.718L819.339 192.859Z" fill="white" fill-opacity="0.3"/>
</svg>
