<svg width="964" height="963" viewBox="0 0 964 963" fill="none" xmlns="http://www.w3.org/2000/svg">
<g filter="url(#filter0_f_157_767)">
<path d="M1354.35 276.747C1392.14 324.827 1372.82 357.369 1296.39 374.373C1219.96 391.377 1162.43 412.485 1123.78 437.698C1085.14 462.91 1040.48 486.95 989.819 509.818C939.153 532.685 878.183 554.086 806.908 574.022C735.632 593.958 667.792 591.612 603.386 566.986C538.981 542.36 487.886 509.231 450.101 467.601C412.317 425.971 404.588 380.529 426.915 331.277C449.243 282.024 443.661 237.755 410.17 198.471C376.679 159.186 367.233 117.849 381.832 74.4593C396.43 31.0701 428.633 -5.57625 478.44 -35.4797C528.247 -65.3831 579.342 -96.166 631.725 -127.828C684.108 -159.491 742.502 -156.266 806.908 -118.154C871.313 -80.0416 926.702 -56.8811 973.074 -48.6723C1019.45 -40.4635 1090.72 -44.2748 1186.9 -60.106C1283.08 -75.9372 1333.31 -56.8811 1337.61 -2.93771C1341.9 51.0057 1336.32 99.0857 1320.86 141.302C1305.41 183.519 1316.57 228.667 1354.35 276.747Z" fill="#171A2C"/>
</g>
<defs>
<filter id="filter0_f_157_767" x="0.208069" y="-524.356" width="1747.87" height="1486.73" filterUnits="userSpaceOnUse" color-interpolation-filters="sRGB">
<feFlood flood-opacity="0" result="BackgroundImageFix"/>
<feBlend mode="normal" in="SourceGraphic" in2="BackgroundImageFix" result="shape"/>
<feGaussianBlur stdDeviation="187.488" result="effect1_foregroundBlur_157_767"/>
</filter>
</defs>
</svg>
